<?xml version="1.0" encoding="utf-8"?>
<!-- Generator: Adobe Illustrator 17.0.0, SVG Export Plug-In . SVG Version: 6.00 Build 0)  -->
<!DOCTYPE svg PUBLIC "-//W3C//DTD SVG 1.1//EN" "http://www.w3.org/Graphics/SVG/1.1/DTD/svg11.dtd">
<svg version="1.1" id="Layer_1" xmlns="http://www.w3.org/2000/svg" xmlns:xlink="http://www.w3.org/1999/xlink" x="0px" y="0px"
	 width="24.185px" height="20.731px" viewBox="0 0 24.185 20.731" enable-background="new 0 0 24.185 20.731" xml:space="preserve">
<g>
	<path fill="#313A3D" d="M22.456,0H1.727C0.773,0,0,0.773,0,1.727v17.276c0,0.953,0.773,1.728,1.727,1.728h20.728
		c0.953,0,1.729-0.775,1.729-1.728V1.727C24.184,0.773,23.408,0,22.456,0z M5.615,1.297c0.476,0,0.864,0.385,0.864,0.864
		c0,0.477-0.387,0.861-0.864,0.861c-0.479,0-0.866-0.384-0.866-0.861C4.749,1.682,5.135,1.297,5.615,1.297z M3.022,1.297
		c0.477,0,0.863,0.385,0.863,0.864c0,0.477-0.386,0.861-0.863,0.861c-0.478,0-0.864-0.384-0.864-0.861
		C2.158,1.682,2.544,1.297,3.022,1.297z M22.456,19.003H1.727V4.337h20.728V19.003z"/>
	<polygon fill="#313A3D" points="9.681,7.887 4.135,5.351 4.135,6.574 8.425,8.407 8.425,8.431 4.135,10.263 4.135,11.485 
		9.681,8.948 	"/>
	<rect x="12.293" y="7.835" fill="#313A3D" width="3.022" height="1.166"/>
</g>
</svg>
