<?xml version="1.0" encoding="utf-8"?>
<!-- Generator: Adobe Illustrator 17.0.0, SVG Export Plug-In . SVG Version: 6.00 Build 0)  -->
<!DOCTYPE svg PUBLIC "-//W3C//DTD SVG 1.1//EN" "http://www.w3.org/Graphics/SVG/1.1/DTD/svg11.dtd">
<svg version="1.1" id="Layer_1" xmlns="http://www.w3.org/2000/svg" xmlns:xlink="http://www.w3.org/1999/xlink" x="0px" y="0px"
	 width="24.185px" height="31.004px" viewBox="0 0 24.185 31.004" enable-background="new 0 0 24.185 31.004" xml:space="preserve">
<g>
	<path fill="#313A3D" d="M18.989,31.004V26.49c0-0.935,0.758-1.697,1.697-1.697l3.499-0.1L18.989,31.004z"/>
	<path fill="#313A3D" d="M22.488,0H1.699C0.758,0,0,0.762,0,1.697v27.611c0,0.938,0.758,1.695,1.699,1.695H17.3v-6.02
		c0-0.936,0.762-1.695,1.7-1.695h5.185V1.697C24.185,0.762,23.428,0,22.488,0z M21.348,4.764c0,0.266-0.293,0.484-0.656,0.484H3.156
		c-0.363,0-0.657-0.219-0.657-0.484V3.959c0-0.27,0.294-0.484,0.657-0.484h17.536c0.363,0,0.656,0.215,0.656,0.484V4.764z
		 M21.348,8.242c0,0.269-0.293,0.486-0.656,0.486H3.156c-0.363,0-0.657-0.217-0.657-0.486V7.435c0-0.264,0.294-0.482,0.657-0.482
		h17.536c0.363,0,0.656,0.219,0.656,0.482V8.242z M21.348,11.793c0,0.266-0.293,0.484-0.656,0.484H3.156
		c-0.363,0-0.657-0.219-0.657-0.484v-0.809c0-0.266,0.294-0.483,0.657-0.483h17.536c0.363,0,0.656,0.217,0.656,0.483V11.793z
		 M12.43,15.309c0,0.266-0.154,0.482-0.346,0.482H2.846c-0.192,0-0.347-0.217-0.347-0.482V14.5c0-0.266,0.155-0.482,0.347-0.482
		h9.238c0.192,0,0.346,0.217,0.346,0.482V15.309z"/>
</g>
</svg>
