<?xml version="1.0" encoding="utf-8"?>
<!-- Generator: Adobe Illustrator 17.0.0, SVG Export Plug-In . SVG Version: 6.00 Build 0)  -->
<!DOCTYPE svg PUBLIC "-//W3C//DTD SVG 1.1//EN" "http://www.w3.org/Graphics/SVG/1.1/DTD/svg11.dtd">
<svg version="1.1" id="Layer_1" xmlns="http://www.w3.org/2000/svg" xmlns:xlink="http://www.w3.org/1999/xlink" x="0px" y="0px"
	 width="34.86px" height="32.847px" viewBox="0 0 34.86 32.847" enable-background="new 0 0 34.86 32.847" xml:space="preserve">
<path id="_x3C_Compound_Path_x3E__1_" fill="#CD6302" d="M6.763,10.16C2.654,11.557,0,13.731,0,16.183
	c0,2.484,2.727,4.684,6.924,6.076c-0.268,1.309-0.42,2.549-0.42,3.66c0,2.564,0.726,4.504,2.223,5.367
	c2.175,1.255,5.49-0.051,8.831-3.066c1.245,1.076,15.712,12.882,10.542-6.017c4.108-1.392,6.762-3.57,6.762-6.021
	c0-2.481-2.723-4.682-6.923-6.074c0.27-1.309,0.423-2.549,0.423-3.66c0-2.562-0.725-4.501-2.226-5.367
	c-2.174-1.252-5.488,0.053-8.829,3.064C10.592-2.568,4.594-1.514,6.763,10.16z M9.817,29.4c-0.711-0.41-1.135-1.71-1.137-3.481
	c0-0.935,0.123-1.969,0.338-3.057c1.316,0.316,2.736,0.557,4.233,0.718c0.884,1.16,1.797,2.224,2.72,3.164
	C13.281,29.137,10.917,30.034,9.817,29.4z M18.793,23.781c-0.422,0.512-0.843,0.997-1.26,1.44c-0.439-0.445-0.88-0.923-1.323-1.439
	c0.405,0.013,0.808,0.027,1.219,0.027C17.89,23.81,18.342,23.795,18.793,23.781z M19.11,26.708c0.883-0.935,1.75-1.993,2.589-3.139
	c1.522-0.168,2.966-0.42,4.3-0.75C30.364,35.631,20.596,28.196,19.11,26.708z M11.529,11.212c-0.238,0.383-0.478,0.768-0.707,1.165
	c-0.248,0.43-0.472,0.86-0.7,1.29c-0.266-0.687-0.506-1.362-0.712-2.023C10.077,11.48,10.784,11.335,11.529,11.212z M2.176,16.183
	c0-1.243,1.866-2.8,5.138-3.933c0.402,1.301,0.913,2.649,1.546,4.025c-0.578,1.329-1.046,2.63-1.413,3.886
	C4.094,19.026,2.176,17.443,2.176,16.183z M9.545,20.758c0.184-0.626,0.394-1.262,0.632-1.909c0.236,0.428,0.47,0.855,0.726,1.282
	c0.216,0.354,0.443,0.69,0.666,1.03C10.859,21.043,10.183,20.911,9.545,20.758z M23.332,21.155c0.238-0.382,0.477-0.765,0.707-1.163
	c0.247-0.43,0.472-0.86,0.7-1.29c0.268,0.685,0.508,1.359,0.71,2.021C24.783,20.888,24.077,21.03,23.332,21.155z M32.682,16.183
	c0,1.244-1.863,2.801-5.137,3.933c-0.4-1.299-0.911-2.647-1.542-4.022c0.578-1.329,1.045-2.63,1.413-3.885
	C30.766,13.343,32.682,14.923,32.682,16.183z M25.317,11.611c-0.183,0.627-0.392,1.261-0.633,1.907
	c-0.237-0.425-0.47-0.852-0.727-1.28c-0.217-0.355-0.445-0.688-0.668-1.032C23.999,11.321,24.677,11.458,25.317,11.611z
	 M20.435,10.859c0.573,0.797,1.126,1.633,1.657,2.507c0.552,0.913,1.047,1.834,1.499,2.753c-0.435,0.932-0.909,1.863-1.441,2.784
	c-0.534,0.929-1.085,1.794-1.644,2.602c-0.979,0.078-2.001,0.126-3.077,0.126c-1.044,0-2.038-0.045-2.995-0.122
	c-0.563-0.783-1.123-1.607-1.664-2.506c-0.554-0.91-1.049-1.833-1.501-2.752c0.436-0.932,0.908-1.866,1.439-2.785
	c0.538-0.932,1.089-1.794,1.647-2.603c0.979-0.079,2.002-0.128,3.073-0.128C18.478,10.736,19.476,10.782,20.435,10.859z
	 M15.742,5.67C14.864,6.603,14,7.656,13.164,8.799c-1.525,0.165-2.968,0.417-4.3,0.749C8.685,8.701,6.431-3.64,15.742,5.67z
	 M16.07,8.588c0.42-0.513,0.844-0.998,1.26-1.444c0.445,0.453,0.884,0.935,1.317,1.44c-0.404-0.012-0.807-0.027-1.218-0.027
	C16.97,8.557,16.521,8.572,16.07,8.588z M25.046,2.971c0.711,0.406,1.133,1.709,1.133,3.478c0,0.938-0.122,1.97-0.338,3.057
	c-1.316-0.318-2.742-0.557-4.24-0.719c-0.884-1.159-1.797-2.214-2.72-3.153C21.574,3.235,23.944,2.334,25.046,2.971z"/>
</svg>
