<?xml version="1.0" encoding="utf-8"?>
<!-- Generator: Adobe Illustrator 17.0.0, SVG Export Plug-In . SVG Version: 6.00 Build 0)  -->
<!DOCTYPE svg PUBLIC "-//W3C//DTD SVG 1.1//EN" "http://www.w3.org/Graphics/SVG/1.1/DTD/svg11.dtd">
<svg version="1.1" id="Layer_1" xmlns="http://www.w3.org/2000/svg" xmlns:xlink="http://www.w3.org/1999/xlink" x="0px" y="0px"
	 width="32.847px" height="34.86px" viewBox="0 0 32.847 34.86" enable-background="new 0 0 32.847 34.86" xml:space="preserve">
<path id="_x3C_Compound_Path_x3E__3_" fill="#FFFFFF" d="M22.687,6.763C21.29,2.654,19.117,0,16.664,0
	c-2.484,0-4.685,2.727-6.076,6.924c-1.309-0.268-2.549-0.42-3.66-0.42c-2.563,0-4.504,0.726-5.367,2.223
	c-1.255,2.175,0.051,5.49,3.065,8.831C3.55,18.801-8.255,33.269,10.643,28.098c1.392,4.108,3.57,6.762,6.021,6.762
	c2.481,0,4.682-2.723,6.074-6.923c1.309,0.27,2.549,0.423,3.66,0.423c2.562,0,4.501-0.725,5.367-2.226
	c1.252-2.174-0.053-5.488-3.064-8.829C35.415,10.592,34.362,4.594,22.687,6.763z M3.448,9.817c0.41-0.711,1.71-1.135,3.48-1.137
	c0.935,0,1.969,0.123,3.057,0.338c-0.316,1.316-0.557,2.736-0.718,4.233c-1.16,0.884-2.224,1.797-3.164,2.72
	C3.71,13.281,2.813,10.917,3.448,9.817z M9.066,18.793c-0.512-0.422-0.997-0.843-1.44-1.26c0.445-0.439,0.923-0.88,1.439-1.323
	c-0.013,0.405-0.027,0.808-0.027,1.219C9.038,17.89,9.052,18.342,9.066,18.793z M6.139,19.11c0.935,0.883,1.993,1.75,3.139,2.589
	c0.168,1.522,0.42,2.966,0.75,4.3C-2.784,30.364,4.651,20.596,6.139,19.11z M21.635,11.529c-0.383-0.238-0.768-0.478-1.165-0.707
	c-0.43-0.248-0.86-0.472-1.29-0.7c0.687-0.266,1.362-0.506,2.023-0.712C21.368,10.077,21.512,10.784,21.635,11.529z M16.664,2.176
	c1.243,0,2.8,1.866,3.933,5.138c-1.301,0.402-2.649,0.913-4.025,1.546c-1.329-0.578-2.63-1.046-3.886-1.413
	C13.822,4.094,15.405,2.176,16.664,2.176z M12.089,9.545c0.626,0.184,1.262,0.394,1.909,0.632c-0.428,0.236-0.855,0.47-1.282,0.726
	c-0.354,0.216-0.69,0.443-1.03,0.666C11.804,10.859,11.936,10.183,12.089,9.545z M11.692,23.332
	c0.382,0.238,0.765,0.477,1.163,0.707c0.43,0.247,0.86,0.472,1.29,0.7c-0.686,0.268-1.359,0.508-2.021,0.71
	C11.959,24.783,11.817,24.077,11.692,23.332z M16.664,32.682c-1.244,0-2.801-1.863-3.933-5.137c1.299-0.4,2.648-0.911,4.023-1.542
	c1.329,0.578,2.63,1.045,3.885,1.413C19.504,30.766,17.924,32.682,16.664,32.682z M21.237,25.317
	c-0.627-0.183-1.261-0.392-1.907-0.633c0.425-0.237,0.852-0.47,1.28-0.727c0.355-0.217,0.688-0.445,1.032-0.668
	C21.526,23.999,21.389,24.677,21.237,25.317z M21.989,20.435c-0.797,0.573-1.633,1.126-2.507,1.657
	c-0.913,0.552-1.834,1.047-2.753,1.499c-0.932-0.435-1.863-0.909-2.784-1.441c-0.929-0.534-1.794-1.085-2.602-1.644
	c-0.078-0.979-0.126-2.001-0.126-3.077c0-1.044,0.045-2.038,0.122-2.995c0.783-0.563,1.607-1.123,2.506-1.664
	c0.91-0.554,1.833-1.049,2.752-1.501c0.932,0.436,1.866,0.908,2.785,1.439c0.932,0.538,1.794,1.089,2.603,1.647
	c0.079,0.979,0.128,2.002,0.128,3.073C22.112,18.478,22.065,19.476,21.989,20.435z M27.177,15.742
	c-0.933-0.877-1.986-1.742-3.129-2.578c-0.165-1.525-0.417-2.968-0.749-4.3C24.146,8.685,36.488,6.431,27.177,15.742z M24.259,16.07
	c0.513,0.42,0.998,0.844,1.444,1.26c-0.453,0.445-0.935,0.884-1.44,1.317c0.012-0.404,0.027-0.807,0.027-1.218
	C24.29,16.97,24.275,16.521,24.259,16.07z M29.876,25.046c-0.406,0.711-1.709,1.133-3.478,1.133c-0.938,0-1.97-0.122-3.057-0.338
	c0.318-1.316,0.557-2.742,0.719-4.24c1.159-0.884,2.214-1.797,3.153-2.72C29.613,21.574,30.513,23.944,29.876,25.046z"/>
</svg>
