<?xml version="1.0" encoding="utf-8"?>
<!-- Generator: Adobe Illustrator 17.0.0, SVG Export Plug-In . SVG Version: 6.00 Build 0)  -->
<!DOCTYPE svg PUBLIC "-//W3C//DTD SVG 1.1//EN" "http://www.w3.org/Graphics/SVG/1.1/DTD/svg11.dtd">
<svg version="1.1" id="Layer_1" xmlns="http://www.w3.org/2000/svg" xmlns:xlink="http://www.w3.org/1999/xlink" x="0px" y="0px"
	 width="71.952px" height="67.918px" viewBox="0 0 71.952 67.918" enable-background="new 0 0 71.952 67.918" xml:space="preserve">
<path fill="#58595B" d="M38.145,34.53l-0.5-4.761l-5.815-1.203c-0.362-0.854-0.926-1.648-1.438-2.404l1.947-5.34l-3.751-3.012
	l-4.828,3.077c-0.847-0.342-1.746-0.71-2.658-0.887l-2.379-5.298l-4.761,0.5l-1.218,5.678c-0.854,0.362-1.654,0.856-2.409,1.367
	l-5.347-1.981l-3.011,3.733l3.077,4.825c-0.341,0.843-0.141,1.678-0.317,2.585L0,33.726l0.5,4.761l5.115,1.279
	c0.362,0.852,0.572,1.682,1.081,2.435l-2.124,5.365l3.662,3.019l4.787-3.072c0.843,0.341,1.676,0.283,2.585,0.459l2.312,4.874
	l4.761-0.5l1.263-5.247c0.854-0.362,1.679-0.642,2.435-1.154l5.355,2.087l3.018-3.68l-3.073-4.793
	c0.344-0.845,0.852-1.742,1.029-2.653L38.145,34.53z M19.119,41.344c-3.937,0.414-7.476-2.453-7.89-6.391
	c-0.414-3.938,2.452-7.478,6.389-7.892c3.937-0.414,7.476,2.453,7.89,6.391S23.056,40.93,19.119,41.344z"/>
<path fill="#58595B" d="M71.952,48.823l-0.687-4.738l-5.858-0.975c-0.396-0.839-0.989-1.61-1.531-2.346l1.736-5.413l-3.866-2.862
	l-4.703,3.263c-0.86-0.309-1.773-0.641-2.691-0.782l-2.585-5.201l-4.738,0.687l-0.994,5.722c-0.839,0.396-1.619,0.92-2.354,1.46
	l-5.421-1.77l-2.863,3.848l3.264,4.7c-0.308,0.856-0.075,1.682-0.216,2.595l-4.642,2.502l0.687,4.738l5.161,1.078
	c0.395,0.837,0.637,1.658,1.176,2.391l-1.912,5.444l3.778,2.873l4.663-3.257c0.856,0.308,1.686,0.218,2.601,0.358l2.501,4.78
	l4.738-0.687l1.056-5.293c0.839-0.396,1.653-0.707,2.388-1.248l5.433,1.876l2.872-3.795l-3.258-4.669
	c0.31-0.857,0.783-1.774,0.924-2.691L71.952,48.823z M53.207,56.377c-3.918,0.568-7.566-2.158-8.134-6.077s2.157-7.569,6.075-8.136
	s7.566,2.158,8.134,6.077C59.849,52.159,57.125,55.809,53.207,56.377z"/>
<path fill="#58595B" d="M59.497,16.618l-0.126-3.537l-4.227-1.185c-0.224-0.648-0.598-1.263-0.937-1.846l1.709-3.839l-2.612-2.413
	l-3.718,2.022c-0.607-0.296-1.252-0.613-1.915-0.79L46.187,1L42.65,1.126l-1.189,4.126c-0.648,0.224-1.264,0.547-1.847,0.885
	l-3.842-1.735L33.36,7l2.023,3.716c-0.295,0.605-0.19,1.23-0.366,1.89l-3.612,1.467l0.126,3.537l3.707,1.205
	c0.223,0.647,0.336,1.269,0.673,1.852l-1.841,3.848l2.547,2.414l3.688-2.021c0.605,0.295,1.221,0.295,1.883,0.471l1.456,3.713
	l3.537-0.126l1.2-3.806c0.648-0.224,1.271-0.388,1.855-0.726l3.843,1.813l2.414-2.559l-2.021-3.692
	c0.297-0.605,0.717-1.241,0.894-1.904L59.497,16.618z M45.116,20.67c-2.925,0.104-5.388-2.192-5.492-5.117
	c-0.104-2.926,2.191-5.39,5.116-5.494c2.925-0.104,5.388,2.192,5.492,5.117C50.335,18.102,48.041,20.566,45.116,20.67z"/>
</svg>
