<?xml version="1.0" encoding="utf-8"?>
<!-- Generator: Adobe Illustrator 17.0.0, SVG Export Plug-In . SVG Version: 6.00 Build 0)  -->
<!DOCTYPE svg PUBLIC "-//W3C//DTD SVG 1.1//EN" "http://www.w3.org/Graphics/SVG/1.1/DTD/svg11.dtd">
<svg version="1.1" id="Layer_1" xmlns="http://www.w3.org/2000/svg" xmlns:xlink="http://www.w3.org/1999/xlink" x="0px" y="0px"
	 width="11px" height="16px" viewBox="0 0 11 16" enable-background="new 0 0 11 16" xml:space="preserve">
<path fill="#FD9638" d="M11,5.5C11,2.462,8.537,0,5.5,0C2.463,0,0,2.462,0,5.5c0,1.036,0.292,2.002,0.79,2.83L0.783,8.328L5.5,16
	l4.717-7.672L10.21,8.33C10.708,7.502,11,6.536,11,5.5z M5.5,3C6.879,3,8,4.121,8,5.5S6.879,8,5.5,8C4.121,8,3,6.879,3,5.5
	S4.121,3,5.5,3z"/>
</svg>
