<?xml version="1.0" encoding="utf-8"?>
<!-- Generator: Adobe Illustrator 17.0.0, SVG Export Plug-In . SVG Version: 6.00 Build 0)  -->
<!DOCTYPE svg PUBLIC "-//W3C//DTD SVG 1.1//EN" "http://www.w3.org/Graphics/SVG/1.1/DTD/svg11.dtd">
<svg version="1.1" id="Layer_1" xmlns="http://www.w3.org/2000/svg" xmlns:xlink="http://www.w3.org/1999/xlink" x="0px" y="0px"
	 width="51.708px" height="26.515px" viewBox="0 0 51.708 26.515" enable-background="new 0 0 51.708 26.515" xml:space="preserve">
<g>
	<g>
		<path fill="#FFFFFF" d="M-0.25-0.25l52.2-0.005l0.008,27.02l-52.206,0.008L-0.25-0.25z M2.564,23.959l46.582-0.007L49.139,2.556
			L2.562,2.562L2.564,23.959z"/>
		<path fill="#FFFFFF" d="M51.7-0.006l0.008,26.52L0.003,26.522L0,0L51.7-0.006 M2.314,24.209l47.081-0.007L49.389,2.307
			L2.312,2.312L2.314,24.209 M52.2-0.506l-0.5,0L0-0.5l-0.5,0l0,0.5l0.003,26.522l0,0.5l0.5,0l51.706-0.008l0.5,0l0-0.5L52.2-0.006
			L52.2-0.506L52.2-0.506z M2.812,2.812l46.077-0.005l0.006,20.896L2.814,23.709L2.812,2.812L2.812,2.812z"/>
	</g>
	
		<rect x="14.601" y="12.335" fill="#FFFFFF" stroke="#FFFFFF" stroke-width="0.5" stroke-miterlimit="10" width="11.315" height="2.312"/>
	
		<rect x="37.492" y="1.155" fill="#FFFFFF" stroke="#FFFFFF" stroke-width="0.5" stroke-miterlimit="10" width="2.312" height="8.684"/>
	
		<rect x="37.494" y="16.829" fill="#FFFFFF" stroke="#FFFFFF" stroke-width="0.5" stroke-miterlimit="10" width="2.312" height="8.534"/>
</g>
</svg>
