<?xml version="1.0" encoding="utf-8"?>
<!-- Generator: Adobe Illustrator 17.0.0, SVG Export Plug-In . SVG Version: 6.00 Build 0)  -->
<!DOCTYPE svg PUBLIC "-//W3C//DTD SVG 1.1//EN" "http://www.w3.org/Graphics/SVG/1.1/DTD/svg11.dtd">
<svg version="1.1" id="Layer_1" xmlns="http://www.w3.org/2000/svg" xmlns:xlink="http://www.w3.org/1999/xlink" x="0px" y="0px"
	 width="978.057px" height="632.496px" viewBox="0 0 978.057 632.496" enable-background="new 0 0 978.057 632.496"
	 xml:space="preserve">
<g>
	<path fill="#FFFFFF" d="M106.052,274.52c14.137,0,26.807-2.534,38.006-7.602c11.197-5.067,20.676-11.979,28.435-20.739
		c7.757-8.757,13.701-19.017,17.831-30.78c4.129-11.76,6.193-24.335,6.193-37.724V12.508h4.505v165.165
		c0,13.889-2.191,26.965-6.569,39.226c-4.382,12.264-10.698,22.961-18.957,32.094c-8.259,9.135-18.237,16.362-29.936,21.678
		c-11.701,5.317-24.869,7.977-39.508,7.977c-14.64,0-27.811-2.66-39.509-7.977c-11.7-5.317-21.677-12.543-29.936-21.678
		c-8.259-9.133-14.578-19.83-18.956-32.094c-4.382-12.262-6.569-25.338-6.569-39.226V12.508h4.504v164.789
		c0,13.391,2.065,25.995,6.195,37.818c4.128,11.825,10.07,22.147,17.829,30.969c7.757,8.82,17.236,15.765,28.435,20.832
		C79.241,271.986,91.911,274.52,106.052,274.52z"/>
	<path fill="#FFFFFF" d="M301.243,275.27h-4.505V12.508h4.505V275.27z"/>
	<path fill="#FFFFFF" d="M359.798,287.658c-0.376,1-0.971,1.624-1.782,1.877c-0.815,0.248-1.596,0.375-2.347,0.375h-1.501
		L474.287,7.253c0.752-1.501,2-2.253,3.755-2.253h1.877L359.798,287.658z"/>
	<path fill="#FFFFFF" d="M620.306,274.52c14.137,0,26.807-2.534,38.006-7.602c11.197-5.067,20.676-11.979,28.435-20.739
		c7.757-8.757,13.701-19.017,17.831-30.78c4.129-11.76,6.193-24.335,6.193-37.724V12.508h4.505v165.165
		c0,13.889-2.191,26.965-6.569,39.226c-4.382,12.264-10.698,22.961-18.957,32.094c-8.259,9.135-18.237,16.362-29.936,21.678
		c-11.701,5.317-24.869,7.977-39.508,7.977c-14.64,0-27.811-2.66-39.509-7.977c-11.7-5.317-21.677-12.543-29.936-21.678
		c-8.259-9.133-14.578-19.83-18.956-32.094c-4.382-12.262-6.569-25.338-6.569-39.226V12.508h4.504v164.789
		c0,13.391,2.065,25.995,6.195,37.818c4.128,11.825,10.07,22.147,17.829,30.969c7.757,8.82,17.236,15.765,28.435,20.832
		C593.496,271.986,606.165,274.52,620.306,274.52z"/>
	<path fill="#FFFFFF" d="M860.917,140.886L766.699,12.508h4.129c1,0,1.717,0.313,2.158,0.939c0.437,0.627,0.845,1.19,1.219,1.688
		l89.903,123.31l1.688-2.814l87.838-120.496c0.376-0.624,0.845-1.219,1.408-1.782c0.563-0.563,1.221-0.845,1.971-0.845h4.129
		l-94.031,127.814l98.535,134.948h-4.128c-1.004,0-1.755-0.344-2.253-1.032c-0.502-0.687-0.877-1.221-1.126-1.596l-94.219-129.88
		c-0.126,0.628-0.627,1.502-1.501,2.628l-92.717,127.251c-0.502,0.628-1.003,1.221-1.502,1.784
		c-0.501,0.563-1.126,0.845-1.877,0.845h-4.129L860.917,140.886z"/>
</g>
<g>
	<path fill="#FF9727" d="M85.874,420.823h-1.758V369.57H12.069v51.253h-1.757V318.317h1.757v49.642h72.047v-49.642h1.758V420.823z"
		/>
	<path fill="#FF9727" d="M185.451,318.317v1.612h-38.514v100.895h-1.757V319.928h-38.806v-1.612H185.451z"/>
	<path fill="#FF9727" d="M254.126,397.319c0.148,0.245,0.281,0.477,0.403,0.696c0.121,0.22,0.256,0.501,0.403,0.842
		c0.146-0.341,0.279-0.622,0.402-0.842c0.121-0.219,0.257-0.451,0.403-0.696l45.102-78.416c0.244-0.39,0.586-0.586,1.025-0.586
		h0.586v102.506h-1.466v-97.966c0-0.244,0-0.488,0-0.733c0-0.244,0.025-0.488,0.074-0.731l-44.883,78.197
		c-0.341,0.488-0.684,0.731-1.025,0.731h-0.439c-0.343,0-0.684-0.244-1.025-0.731l-46.347-78.125
		c0.049,0.245,0.074,0.476,0.074,0.696s0,0.452,0,0.696v97.966h-1.466V318.317h0.586c0.439,0,0.78,0.196,1.025,0.586
		L254.126,397.319z"/>
	<path fill="#FF9727" d="M339.352,419.213h52.278v1.611h-54.036V318.317h1.758V419.213z"/>
	<path fill="#FF9727" d="M410.08,425.656c-0.146,0.39-0.38,0.634-0.696,0.731c-0.318,0.098-0.622,0.146-0.915,0.146h-0.586
		l46.86-110.266c0.293-0.586,0.78-0.879,1.464-0.879h0.733L410.08,425.656z"/>
	<path fill="#FF9727" d="M522.397,327.688c-0.245,0.294-0.513,0.44-0.807,0.44c-0.439,0-1.11-0.501-2.012-1.501
		c-0.904-1-2.222-2.086-3.954-3.258c-1.733-1.172-3.967-2.258-6.7-3.259c-2.733-0.999-6.149-1.5-10.251-1.5
		c-4.198,0-7.919,0.647-11.165,1.94c-3.247,1.294-5.968,3.014-8.163,5.161c-2.197,2.15-3.869,4.639-5.016,7.469
		c-1.148,2.832-1.721,5.784-1.721,8.86c0,3.954,0.77,7.249,2.306,9.884c1.538,2.636,3.552,4.857,6.041,6.662
		c2.49,1.807,5.344,3.308,8.566,4.503c3.221,1.197,6.491,2.343,9.811,3.441c3.32,1.098,6.59,2.259,9.812,3.478
		c3.221,1.22,6.077,2.77,8.566,4.65s4.503,4.199,6.04,6.956c1.538,2.758,2.306,6.211,2.306,10.36c0,4.199-0.708,8.116-2.123,11.752
		c-1.415,3.636-3.466,6.808-6.149,9.518c-2.686,2.71-5.981,4.845-9.886,6.406c-3.905,1.562-8.346,2.343-13.326,2.343
		c-3.466,0-6.566-0.306-9.298-0.916c-2.735-0.609-5.236-1.488-7.506-2.636c-2.269-1.145-4.357-2.537-6.26-4.173
		s-3.734-3.502-5.492-5.601l0.294-0.294c0.146-0.146,0.268-0.256,0.365-0.329c0.098-0.072,0.268-0.109,0.513-0.109
		c0.293,0,0.72,0.306,1.281,0.916s1.33,1.39,2.306,2.342c0.977,0.953,2.148,1.966,3.515,3.039c1.367,1.074,3.026,2.086,4.979,3.039
		c1.952,0.952,4.184,1.733,6.699,2.342c2.515,0.612,5.382,0.916,8.603,0.916c4.734,0,8.945-0.756,12.631-2.269
		c3.685-1.513,6.808-3.552,9.372-6.114c2.562-2.563,4.514-5.552,5.857-8.97c1.343-3.416,2.014-7.053,2.014-10.91
		c0-3.221-0.501-6.004-1.501-8.346c-1-2.343-2.355-4.357-4.063-6.041c-1.709-1.684-3.698-3.123-5.968-4.32
		c-2.269-1.195-4.698-2.269-7.285-3.221s-5.223-1.831-7.908-2.636c-2.685-0.805-5.32-1.696-7.908-2.673
		c-2.588-0.975-5.016-2.086-7.285-3.332c-2.269-1.244-4.259-2.757-5.968-4.539c-1.709-1.782-3.063-3.905-4.063-6.371
		c-1.002-2.463-1.501-5.381-1.501-8.748c0-3.27,0.61-6.408,1.831-9.409c1.219-3.002,3.002-5.65,5.345-7.944
		c2.342-2.295,5.235-4.125,8.676-5.492c3.441-1.365,7.383-2.051,11.824-2.051c4.979,0,9.384,0.807,13.216,2.417
		c3.831,1.611,7.432,4.173,10.8,7.687L522.397,327.688z"/>
	<path fill="#FF9727" d="M627.39,406.985c0.195,0,0.366,0.072,0.513,0.22l0.659,0.585c-2.148,2.099-4.455,4.016-6.919,5.747
		c-2.466,1.733-5.162,3.222-8.091,4.466c-2.928,1.245-6.151,2.222-9.664,2.928c-3.515,0.708-7.396,1.062-11.643,1.062
		c-6.882,0-13.228-1.209-19.036-3.624c-5.809-2.416-10.837-5.894-15.084-10.434c-4.246-4.539-7.554-10.043-9.921-16.511
		c-2.368-6.467-3.55-13.752-3.55-21.855c0-7.81,1.182-14.937,3.55-21.381c2.367-6.443,5.712-11.971,10.031-16.583
		c4.32-4.613,9.494-8.175,15.522-10.69c6.028-2.515,12.678-3.772,19.952-3.772c3.71,0,7.054,0.245,10.032,0.733
		c2.976,0.489,5.758,1.234,8.346,2.233c2.587,1.002,5.04,2.259,7.358,3.772s4.673,3.27,7.067,5.272l-0.22,0.365
		c-0.196,0.245-0.415,0.366-0.659,0.366c-0.391,0-0.916-0.279-1.575-0.842c-0.659-0.56-1.537-1.256-2.636-2.086
		c-1.098-0.829-2.453-1.732-4.063-2.71c-1.611-0.975-3.54-1.878-5.784-2.708c-2.246-0.83-4.845-1.525-7.798-2.088
		c-2.953-0.56-6.309-0.841-10.068-0.841c-6.931,0-13.289,1.184-19.073,3.55c-5.784,2.368-10.763,5.761-14.937,10.177
		c-4.172,4.419-7.43,9.775-9.774,16.072s-3.515,13.351-3.515,21.161c0,7.956,1.158,15.082,3.478,21.379
		c2.318,6.297,5.527,11.642,9.629,16.035c4.1,4.393,8.943,7.749,14.533,10.068c5.589,2.318,11.654,3.478,18.195,3.478
		c4.149,0,7.859-0.293,11.13-0.879c3.27-0.585,6.26-1.439,8.968-2.562c2.71-1.123,5.223-2.501,7.542-4.137
		c2.317-1.636,4.623-3.502,6.919-5.601C627.049,407.107,627.244,406.985,627.39,406.985z"/>
	<path fill="#FF9727" d="M703.244,327.688c-0.245,0.294-0.513,0.44-0.807,0.44c-0.439,0-1.11-0.501-2.012-1.501
		c-0.904-1-2.222-2.086-3.954-3.258c-1.733-1.172-3.967-2.258-6.7-3.259c-2.733-0.999-6.149-1.5-10.251-1.5
		c-4.198,0-7.919,0.647-11.165,1.94c-3.247,1.294-5.968,3.014-8.163,5.161c-2.197,2.15-3.869,4.639-5.016,7.469
		c-1.148,2.832-1.721,5.784-1.721,8.86c0,3.954,0.77,7.249,2.306,9.884c1.538,2.636,3.552,4.857,6.041,6.662
		c2.49,1.807,5.344,3.308,8.566,4.503c3.221,1.197,6.491,2.343,9.811,3.441c3.32,1.098,6.59,2.259,9.812,3.478
		c3.221,1.22,6.077,2.77,8.566,4.65s4.503,4.199,6.04,6.956c1.538,2.758,2.306,6.211,2.306,10.36c0,4.199-0.708,8.116-2.123,11.752
		s-3.466,6.808-6.149,9.518c-2.686,2.71-5.981,4.845-9.886,6.406c-3.905,1.562-8.346,2.343-13.326,2.343
		c-3.466,0-6.566-0.306-9.298-0.916c-2.735-0.609-5.236-1.488-7.506-2.636c-2.269-1.145-4.357-2.537-6.26-4.173
		s-3.734-3.502-5.492-5.601l0.294-0.294c0.146-0.146,0.268-0.256,0.365-0.329c0.098-0.072,0.268-0.109,0.513-0.109
		c0.293,0,0.72,0.306,1.281,0.916c0.561,0.61,1.33,1.39,2.306,2.342c0.977,0.953,2.148,1.966,3.515,3.039
		c1.367,1.074,3.026,2.086,4.979,3.039c1.952,0.952,4.184,1.733,6.699,2.342c2.515,0.612,5.382,0.916,8.603,0.916
		c4.734,0,8.945-0.756,12.631-2.269c3.685-1.513,6.808-3.552,9.372-6.114c2.562-2.563,4.514-5.552,5.857-8.97
		c1.343-3.416,2.014-7.053,2.014-10.91c0-3.221-0.501-6.004-1.501-8.346c-1-2.343-2.355-4.357-4.063-6.041
		c-1.709-1.684-3.698-3.123-5.968-4.32c-2.269-1.195-4.698-2.269-7.285-3.221c-2.587-0.952-5.223-1.831-7.908-2.636
		c-2.685-0.805-5.32-1.696-7.908-2.673c-2.588-0.975-5.016-2.086-7.285-3.332c-2.269-1.244-4.26-2.757-5.968-4.539
		c-1.709-1.782-3.063-3.905-4.063-6.371c-1.002-2.463-1.501-5.381-1.501-8.748c0-3.27,0.61-6.408,1.831-9.409
		c1.219-3.002,3.002-5.65,5.345-7.944c2.342-2.295,5.235-4.125,8.676-5.492c3.441-1.365,7.383-2.051,11.824-2.051
		c4.979,0,9.384,0.807,13.216,2.417c3.831,1.611,7.432,4.173,10.8,7.687L703.244,327.688z"/>
	<path fill="#FF9727" d="M778.804,327.688c-0.245,0.294-0.513,0.44-0.807,0.44c-0.439,0-1.11-0.501-2.012-1.501
		c-0.904-1-2.222-2.086-3.954-3.258c-1.733-1.172-3.967-2.258-6.7-3.259c-2.733-0.999-6.149-1.5-10.251-1.5
		c-4.198,0-7.919,0.647-11.165,1.94c-3.247,1.294-5.968,3.014-8.163,5.161c-2.197,2.15-3.869,4.639-5.016,7.469
		c-1.148,2.832-1.721,5.784-1.721,8.86c0,3.954,0.77,7.249,2.306,9.884c1.538,2.636,3.552,4.857,6.041,6.662
		c2.49,1.807,5.344,3.308,8.566,4.503c3.221,1.197,6.491,2.343,9.811,3.441c3.32,1.098,6.59,2.259,9.812,3.478
		c3.221,1.22,6.077,2.77,8.566,4.65s4.503,4.199,6.04,6.956c1.538,2.758,2.306,6.211,2.306,10.36c0,4.199-0.708,8.116-2.123,11.752
		c-1.415,3.636-3.466,6.808-6.149,9.518c-2.686,2.71-5.981,4.845-9.886,6.406c-3.905,1.562-8.346,2.343-13.326,2.343
		c-3.466,0-6.566-0.306-9.298-0.916c-2.735-0.609-5.236-1.488-7.506-2.636c-2.269-1.145-4.357-2.537-6.26-4.173
		s-3.734-3.502-5.492-5.601l0.294-0.294c0.146-0.146,0.268-0.256,0.365-0.329c0.097-0.072,0.268-0.109,0.513-0.109
		c0.293,0,0.72,0.306,1.281,0.916c0.561,0.61,1.33,1.39,2.306,2.342c0.977,0.953,2.148,1.966,3.515,3.039
		c1.367,1.074,3.026,2.086,4.979,3.039c1.952,0.952,4.184,1.733,6.699,2.342c2.515,0.612,5.382,0.916,8.603,0.916
		c4.734,0,8.945-0.756,12.631-2.269c3.685-1.513,6.808-3.552,9.372-6.114c2.562-2.563,4.514-5.552,5.857-8.97
		c1.343-3.416,2.014-7.053,2.014-10.91c0-3.221-0.501-6.004-1.501-8.346c-1-2.343-2.355-4.357-4.063-6.041
		c-1.709-1.684-3.698-3.123-5.968-4.32c-2.269-1.195-4.698-2.269-7.285-3.221s-5.223-1.831-7.908-2.636
		c-2.685-0.805-5.32-1.696-7.907-2.673c-2.588-0.975-5.016-2.086-7.285-3.332c-2.269-1.244-4.26-2.757-5.968-4.539
		c-1.709-1.782-3.063-3.905-4.063-6.371c-1.002-2.463-1.501-5.381-1.501-8.748c0-3.27,0.61-6.408,1.831-9.409
		c1.219-3.002,3.002-5.65,5.346-7.944c2.342-2.295,5.235-4.125,8.676-5.492c3.441-1.365,7.383-2.051,11.824-2.051
		c4.979,0,9.384,0.807,13.216,2.417c3.831,1.611,7.432,4.173,10.8,7.687L778.804,327.688z"/>
	<path fill="#FF9727" d="M792.128,425.656c-0.146,0.39-0.38,0.634-0.696,0.731c-0.318,0.098-0.622,0.146-0.915,0.146h-0.586
		l46.86-110.266c0.293-0.586,0.78-0.879,1.464-0.879h0.733L792.128,425.656z"/>
	<path fill="#FF9727" d="M879.698,387.729c0,5.759-0.708,10.775-2.123,15.045c-1.415,4.273-3.404,7.835-5.968,10.691
		c-2.562,2.855-5.637,4.991-9.225,6.406c-3.587,1.415-7.529,2.123-11.824,2.123c-4.003,0-8.2-0.733-12.594-2.197l0.148-0.439
		c0.194-0.488,0.486-0.733,0.878-0.733c0.488,0,1.049,0.099,1.684,0.294c0.634,0.195,1.402,0.415,2.306,0.659
		c0.903,0.244,1.964,0.464,3.185,0.659c1.219,0.195,2.683,0.293,4.393,0.293c4.149,0,7.919-0.683,11.313-2.051
		c3.391-1.365,6.271-3.416,8.639-6.151c2.367-2.732,4.198-6.149,5.492-10.249c1.293-4.101,1.94-8.884,1.94-14.351v-69.412h1.757
		V387.729z"/>
	<path fill="#FF9727" d="M961.849,327.688c-0.245,0.294-0.513,0.44-0.807,0.44c-0.439,0-1.11-0.501-2.012-1.501
		c-0.904-1-2.222-2.086-3.954-3.258c-1.733-1.172-3.967-2.258-6.7-3.259c-2.733-0.999-6.149-1.5-10.251-1.5
		c-4.198,0-7.919,0.647-11.165,1.94c-3.247,1.294-5.968,3.014-8.163,5.161c-2.197,2.15-3.869,4.639-5.016,7.469
		c-1.148,2.832-1.721,5.784-1.721,8.86c0,3.954,0.77,7.249,2.306,9.884c1.538,2.636,3.552,4.857,6.041,6.662
		c2.49,1.807,5.344,3.308,8.566,4.503c3.221,1.197,6.491,2.343,9.811,3.441c3.32,1.098,6.59,2.259,9.812,3.478
		c3.221,1.22,6.077,2.77,8.566,4.65s4.503,4.199,6.04,6.956c1.538,2.758,2.306,6.211,2.306,10.36c0,4.199-0.708,8.116-2.123,11.752
		c-1.415,3.636-3.466,6.808-6.149,9.518c-2.686,2.71-5.981,4.845-9.886,6.406c-3.905,1.562-8.346,2.343-13.326,2.343
		c-3.466,0-6.566-0.306-9.298-0.916c-2.735-0.609-5.236-1.488-7.506-2.636c-2.269-1.145-4.357-2.537-6.26-4.173
		s-3.734-3.502-5.492-5.601l0.294-0.294c0.146-0.146,0.268-0.256,0.365-0.329c0.098-0.072,0.268-0.109,0.513-0.109
		c0.293,0,0.72,0.306,1.281,0.916c0.561,0.61,1.33,1.39,2.306,2.342c0.977,0.953,2.148,1.966,3.515,3.039
		c1.367,1.074,3.026,2.086,4.979,3.039c1.952,0.952,4.184,1.733,6.699,2.342c2.515,0.612,5.382,0.916,8.603,0.916
		c4.734,0,8.945-0.756,12.631-2.269c3.685-1.513,6.808-3.552,9.372-6.114c2.562-2.563,4.514-5.552,5.857-8.97
		c1.343-3.416,2.014-7.053,2.014-10.91c0-3.221-0.501-6.004-1.501-8.346c-1-2.343-2.355-4.357-4.063-6.041
		c-1.709-1.684-3.698-3.123-5.968-4.32c-2.269-1.195-4.698-2.269-7.285-3.221s-5.223-1.831-7.908-2.636
		c-2.685-0.805-5.32-1.696-7.908-2.673c-2.588-0.975-5.016-2.086-7.285-3.332c-2.269-1.244-4.26-2.757-5.968-4.539
		c-1.709-1.782-3.063-3.905-4.063-6.371c-1.002-2.463-1.501-5.381-1.501-8.748c0-3.27,0.61-6.408,1.831-9.409
		c1.219-3.002,3.002-5.65,5.345-7.944c2.342-2.295,5.235-4.125,8.676-5.492c3.441-1.365,7.383-2.051,11.824-2.051
		c4.979,0,9.384,0.807,13.216,2.417c3.831,1.611,7.432,4.173,10.8,7.687L961.849,327.688z"/>
</g>
<g>
	<path fill="#FFFFFF" d="M59.243,512.259h-0.729c-0.243,0-0.404-0.135-0.485-0.405l-7.897-18.953H20.242l-7.898,18.953
		c-0.081,0.27-0.27,0.405-0.567,0.405H11.13l23.651-56.699h0.81L59.243,512.259z M20.566,492.09h29.241l-13.973-33.533
		c-0.135-0.296-0.249-0.573-0.344-0.83c-0.094-0.256-0.197-0.533-0.304-0.83c-0.108,0.298-0.209,0.575-0.304,0.83
		c-0.094,0.257-0.209,0.534-0.344,0.83L20.566,492.09z"/>
	<path fill="#FFFFFF" d="M72.365,484.882v27.377h-0.972V455.56h13.122c5.912,0,10.455,1.148,13.627,3.443
		c3.173,2.294,4.759,5.872,4.759,10.732c0,2.296-0.446,4.367-1.337,6.217s-2.146,3.422-3.766,4.718
		c-1.62,1.296-3.558,2.309-5.811,3.037c-2.255,0.729-4.746,1.122-7.472,1.175c0.269,0.108,0.512,0.249,0.728,0.425
		c0.216,0.176,0.432,0.384,0.648,0.627l22.113,26.325h-0.648c-0.216,0-0.391-0.02-0.526-0.06c-0.135-0.041-0.311-0.182-0.527-0.425
		L85.081,486.34c-0.243-0.296-0.48-0.539-0.71-0.729c-0.23-0.188-0.485-0.337-0.769-0.445c-0.283-0.108-0.615-0.182-0.993-0.223
		c-0.378-0.041-0.85-0.06-1.417-0.06H72.365z M72.365,484.072h11.42c2.78,0,5.285-0.331,7.513-0.992s4.131-1.607,5.71-2.835
		c1.579-1.229,2.794-2.727,3.645-4.495c0.85-1.768,1.275-3.773,1.275-6.015c0-4.617-1.498-7.999-4.495-10.145
		c-2.996-2.146-7.304-3.219-12.918-3.219h-12.15V484.072z"/>
	<path fill="#FFFFFF" d="M154.011,455.56v0.891h-21.302v55.808h-0.972v-55.808h-21.465v-0.891H154.011z"/>
	<path fill="#FFFFFF" d="M227.475,483.91c0,4.481-0.641,8.478-1.923,11.987c-1.283,3.51-3.079,6.48-5.386,8.91
		c-2.309,2.431-5.07,4.28-8.283,5.549c-3.214,1.27-6.764,1.903-10.652,1.903h-20.249V455.56h20.249
		c3.888,0,7.438,0.635,10.652,1.903c3.213,1.27,5.974,3.119,8.283,5.549c2.307,2.429,4.103,5.401,5.386,8.91
		C226.834,475.432,227.475,479.428,227.475,483.91z M226.423,483.91c0-4.401-0.615-8.309-1.843-11.725
		c-1.229-3.416-2.95-6.298-5.164-8.647c-2.213-2.348-4.867-4.131-7.957-5.346c-3.092-1.215-6.5-1.822-10.227-1.822h-19.277v55.079
		h19.277c3.727,0,7.135-0.609,10.227-1.823c3.091-1.215,5.744-2.996,7.957-5.346c2.214-2.349,3.935-5.231,5.164-8.647
		C225.808,492.219,226.423,488.311,226.423,483.91z"/>
	<path fill="#FFFFFF" d="M245.618,512.259h-0.972V455.56h0.972V512.259z"/>
	<path fill="#FFFFFF" d="M269.27,484.882v27.377h-0.972V455.56h13.122c5.912,0,10.455,1.148,13.627,3.443
		c3.173,2.294,4.759,5.872,4.759,10.732c0,2.296-0.446,4.367-1.337,6.217c-0.891,1.85-2.146,3.422-3.766,4.718
		c-1.62,1.296-3.558,2.309-5.811,3.037c-2.255,0.729-4.746,1.122-7.472,1.175c0.269,0.108,0.512,0.249,0.728,0.425
		c0.216,0.176,0.432,0.384,0.648,0.627l22.113,26.325h-0.648c-0.216,0-0.391-0.02-0.526-0.06c-0.135-0.041-0.311-0.182-0.527-0.425
		l-21.221-25.434c-0.243-0.296-0.48-0.539-0.71-0.729c-0.23-0.188-0.485-0.337-0.769-0.445c-0.283-0.108-0.615-0.182-0.993-0.223
		c-0.378-0.041-0.85-0.06-1.417-0.06H269.27z M269.27,484.072h11.42c2.78,0,5.285-0.331,7.513-0.992
		c2.227-0.661,4.131-1.607,5.71-2.835c1.579-1.229,2.794-2.727,3.645-4.495c0.85-1.768,1.275-3.773,1.275-6.015
		c0-4.617-1.498-7.999-4.495-10.145c-2.996-2.146-7.304-3.219-12.918-3.219h-12.15V484.072z"/>
	<path fill="#FFFFFF" d="M350.024,455.56v0.891h-32.156v26.568h27.296v0.892h-27.296v27.458h32.237l-0.081,0.891h-33.128V455.56
		H350.024z"/>
	<path fill="#FFFFFF" d="M407.774,504.605c0.108,0,0.203,0.041,0.285,0.122l0.363,0.324c-1.188,1.161-2.464,2.221-3.826,3.178
		c-1.364,0.959-2.856,1.783-4.476,2.47c-1.62,0.689-3.401,1.229-5.346,1.62c-1.944,0.391-4.09,0.588-6.44,0.588
		c-3.807,0-7.317-0.668-10.53-2.004c-3.213-1.337-5.994-3.261-8.343-5.772c-2.348-2.511-4.178-5.554-5.487-9.133
		c-1.31-3.577-1.964-7.607-1.964-12.088c0-4.32,0.653-8.263,1.964-11.826c1.309-3.564,3.159-6.622,5.549-9.173
		c2.389-2.551,5.25-4.522,8.586-5.914c3.333-1.391,7.013-2.086,11.036-2.086c2.052,0,3.901,0.136,5.548,0.405
		c1.648,0.27,3.186,0.682,4.617,1.236c1.431,0.554,2.788,1.249,4.07,2.086c1.282,0.837,2.584,1.809,3.908,2.916l-0.122,0.202
		c-0.108,0.135-0.23,0.202-0.365,0.202c-0.216,0-0.505-0.155-0.87-0.466c-0.365-0.31-0.851-0.694-1.459-1.154
		c-0.607-0.458-1.356-0.958-2.247-1.498c-0.891-0.539-1.958-1.039-3.199-1.498c-1.242-0.459-2.68-0.843-4.313-1.154
		c-1.634-0.311-3.491-0.466-5.569-0.466c-3.834,0-7.351,0.655-10.551,1.964c-3.199,1.31-5.953,3.186-8.262,5.63
		c-2.309,2.444-4.111,5.406-5.407,8.889c-1.296,3.483-1.944,7.385-1.944,11.705c0,4.401,0.641,8.343,1.924,11.826
		c1.282,3.483,3.058,6.44,5.326,8.869s4.947,4.287,8.039,5.569c3.092,1.283,6.446,1.924,10.064,1.924
		c2.294,0,4.347-0.163,6.156-0.487c1.809-0.324,3.463-0.796,4.961-1.418c1.498-0.62,2.889-1.383,4.171-2.288
		c1.282-0.904,2.558-1.938,3.826-3.098C407.585,504.673,407.694,504.605,407.774,504.605z"/>
	<path fill="#FFFFFF" d="M459.371,455.56v0.891h-21.302v55.808h-0.972v-55.808h-21.465v-0.891H459.371z"/>
	<path fill="#FFFFFF" d="M473.302,512.259h-0.972V455.56h0.972V512.259z"/>
	<path fill="#FFFFFF" d="M543.12,483.91c0,4.481-0.641,8.504-1.923,12.068c-1.283,3.564-3.079,6.594-5.386,9.092
		c-2.309,2.498-5.07,4.414-8.283,5.751c-3.214,1.337-6.764,2.004-10.652,2.004c-3.861,0-7.391-0.668-10.59-2.004
		c-3.199-1.337-5.954-3.253-8.262-5.751c-2.309-2.498-4.105-5.528-5.387-9.092c-1.282-3.564-1.923-7.587-1.923-12.068
		c0-4.455,0.641-8.471,1.923-12.049c1.283-3.577,3.079-6.622,5.387-9.133c2.307-2.511,5.062-4.442,8.262-5.792
		c3.199-1.35,6.729-2.025,10.59-2.025c3.888,0,7.438,0.669,10.652,2.006c3.213,1.335,5.974,3.26,8.283,5.771
		c2.307,2.511,4.103,5.555,5.386,9.133C542.479,475.398,543.12,479.428,543.12,483.91z M542.067,483.91
		c0-4.401-0.614-8.343-1.842-11.826c-1.229-3.484-2.95-6.44-5.164-8.87c-2.214-2.429-4.867-4.286-7.957-5.569
		c-3.092-1.282-6.5-1.923-10.227-1.923c-3.672,0-7.047,0.641-10.124,1.923c-3.079,1.283-5.731,3.139-7.959,5.569
		c-2.227,2.431-3.968,5.386-5.224,8.87c-1.255,3.483-1.884,7.425-1.884,11.826s0.628,8.336,1.884,11.805
		c1.255,3.47,2.996,6.413,5.224,8.83c2.227,2.416,4.88,4.266,7.959,5.548c3.077,1.283,6.453,1.924,10.124,1.924
		c3.727,0,7.135-0.641,10.227-1.924c3.091-1.282,5.743-3.131,7.957-5.548c2.214-2.416,3.935-5.36,5.164-8.83
		C541.453,492.247,542.067,488.311,542.067,483.91z"/>
	<path fill="#FFFFFF" d="M559.806,455.884l40.134,54.633c-0.026-0.134-0.041-0.275-0.041-0.425c0-0.148,0-0.29,0-0.425V455.56h0.811
		v56.699h-0.243c-0.163,0-0.311-0.094-0.446-0.283l-40.337-54.877c0.026,0.163,0.041,0.332,0.041,0.506c0,0.176,0,0.332,0,0.466
		v54.188h-0.809V455.56h0.324C559.482,455.56,559.671,455.669,559.806,455.884z"/>
	<path fill="#FFFFFF" d="M627.359,514.933c-0.081,0.215-0.21,0.35-0.384,0.404c-0.176,0.054-0.345,0.081-0.506,0.081h-0.324
		l25.92-60.991c0.161-0.324,0.432-0.487,0.809-0.487h0.405L627.359,514.933z"/>
	<path fill="#FFFFFF" d="M680.087,511.368h28.916v0.891h-29.888V455.56h0.972V511.368z"/>
	<path fill="#FFFFFF" d="M759.546,512.259h-0.729c-0.243,0-0.404-0.135-0.485-0.405l-7.897-18.953h-29.889l-7.897,18.953
		c-0.081,0.27-0.27,0.405-0.568,0.405h-0.648l23.653-56.699h0.809L759.546,512.259z M720.869,492.09h29.241l-13.973-33.533
		c-0.135-0.296-0.249-0.573-0.344-0.83c-0.096-0.256-0.197-0.533-0.304-0.83c-0.108,0.298-0.209,0.575-0.303,0.83
		c-0.096,0.257-0.21,0.534-0.345,0.83L720.869,492.09z"/>
	<path fill="#FFFFFF" d="M779.229,488.162v24.097h-0.972v-24.097l-21.141-32.602h0.809c0.244,0,0.432,0.109,0.568,0.324
		l19.075,29.565c0.215,0.352,0.425,0.682,0.628,0.992c0.202,0.311,0.384,0.628,0.546,0.952c0.135-0.324,0.311-0.641,0.527-0.952
		c0.215-0.31,0.432-0.64,0.648-0.992l19.075-29.565c0.135-0.215,0.324-0.324,0.567-0.324h0.811L779.229,488.162z"/>
	<path fill="#FFFFFF" d="M857.229,483.91c0,4.481-0.641,8.504-1.923,12.068c-1.283,3.564-3.079,6.594-5.386,9.092
		c-2.309,2.498-5.07,4.414-8.283,5.751c-3.214,1.337-6.764,2.004-10.652,2.004c-3.861,0-7.391-0.668-10.59-2.004
		c-3.199-1.337-5.954-3.253-8.262-5.751c-2.309-2.498-4.105-5.528-5.388-9.092c-1.282-3.564-1.923-7.587-1.923-12.068
		c0-4.455,0.641-8.471,1.923-12.049c1.283-3.577,3.079-6.622,5.388-9.133c2.307-2.511,5.062-4.442,8.262-5.792
		c3.199-1.35,6.729-2.025,10.59-2.025c3.888,0,7.438,0.669,10.652,2.006c3.213,1.335,5.974,3.26,8.283,5.771
		c2.307,2.511,4.103,5.555,5.386,9.133C856.587,475.398,857.229,479.428,857.229,483.91z M856.175,483.91
		c0-4.401-0.614-8.343-1.842-11.826c-1.229-3.484-2.95-6.44-5.164-8.87c-2.214-2.429-4.867-4.286-7.957-5.569
		c-3.092-1.282-6.5-1.923-10.227-1.923c-3.672,0-7.047,0.641-10.124,1.923c-3.079,1.283-5.731,3.139-7.959,5.569
		c-2.227,2.431-3.968,5.386-5.224,8.87c-1.255,3.483-1.884,7.425-1.884,11.826s0.628,8.336,1.884,11.805
		c1.255,3.47,2.996,6.413,5.224,8.83c2.227,2.416,4.88,4.266,7.959,5.548c3.077,1.283,6.453,1.924,10.124,1.924
		c3.727,0,7.135-0.641,10.227-1.924c3.091-1.282,5.743-3.131,7.957-5.548c2.214-2.416,3.935-5.36,5.164-8.83
		C855.562,492.247,856.175,488.311,856.175,483.91z"/>
	<path fill="#FFFFFF" d="M893.111,512.098c3.05,0,5.784-0.547,8.201-1.641c2.415-1.093,4.461-2.584,6.135-4.474
		s2.957-4.105,3.847-6.643c0.891-2.537,1.337-5.251,1.337-8.14v-35.64h0.972v35.64c0,2.996-0.474,5.818-1.418,8.464
		c-0.946,2.647-2.309,4.956-4.09,6.926c-1.781,1.97-3.935,3.53-6.459,4.678c-2.525,1.147-5.367,1.721-8.525,1.721
		s-6.001-0.575-8.525-1.721c-2.525-1.148-4.678-2.708-6.459-4.678c-1.783-1.97-3.146-4.279-4.091-6.926
		c-0.944-2.646-1.417-5.468-1.417-8.464v-35.64h0.972v35.558c0,2.89,0.445,5.609,1.337,8.161c0.891,2.551,2.172,4.779,3.847,6.682
		c1.674,1.903,3.719,3.403,6.135,4.495C887.326,511.551,890.06,512.098,893.111,512.098z"/>
	<path fill="#FFFFFF" d="M968.276,455.56v0.891h-21.302v55.808h-0.972v-55.808h-21.465v-0.891H968.276z"/>
</g>
<g>
	<path fill="#FF9727" d="M10.334,623.12H9v-77.819h1.334V623.12z"/>
	<path fill="#FF9727" d="M93.043,623.12h-1c-0.334,0-0.556-0.185-0.667-0.556l-10.839-26.013H39.515l-10.839,26.013
		c-0.112,0.371-0.371,0.556-0.778,0.556h-0.889l32.462-77.819h1.111L93.043,623.12z M39.96,595.439h40.132l-19.177-46.024
		c-0.186-0.408-0.343-0.787-0.473-1.14c-0.13-0.351-0.269-0.731-0.417-1.139c-0.148,0.408-0.287,0.788-0.417,1.139
		c-0.13,0.353-0.287,0.732-0.473,1.14L39.96,595.439z"/>
	<path fill="#FF9727" d="M114.833,626.789c-0.111,0.296-0.287,0.481-0.528,0.556c-0.242,0.074-0.473,0.111-0.695,0.111h-0.445
		l35.575-83.711c0.222-0.445,0.592-0.667,1.111-0.667h0.556L114.833,626.789z"/>
	<path fill="#FF9727" d="M222.444,612.615c0.148,0,0.279,0.056,0.39,0.167l0.501,0.445c-1.632,1.594-3.382,3.049-5.253,4.363
		c-1.871,1.316-3.919,2.446-6.142,3.391c-2.223,0.945-4.669,1.687-7.337,2.223c-2.669,0.537-5.614,0.806-8.838,0.806
		c-5.225,0-10.042-0.917-14.452-2.752c-4.41-1.834-8.227-4.474-11.45-7.92c-3.224-3.447-5.735-7.624-7.532-12.534
		s-2.696-10.441-2.696-16.593c0-5.928,0.898-11.339,2.696-16.23c1.798-4.892,4.336-9.088,7.615-12.59
		c3.279-3.502,7.207-6.207,11.784-8.115c4.576-1.908,9.625-2.863,15.147-2.863c2.815,0,5.354,0.186,7.615,0.556
		c2.26,0.371,4.372,0.936,6.337,1.695c1.964,0.76,3.826,1.715,5.586,2.863c1.76,1.149,3.548,2.483,5.364,4.002l-0.167,0.279
		c-0.148,0.185-0.315,0.278-0.501,0.278c-0.297,0-0.694-0.213-1.195-0.639c-0.5-0.425-1.167-0.954-2.001-1.584
		c-0.833-0.63-1.862-1.316-3.085-2.057c-1.223-0.741-2.687-1.426-4.391-2.056c-1.705-0.63-3.678-1.158-5.92-1.585
		c-2.242-0.425-4.79-0.639-7.643-0.639c-5.262,0-10.089,0.9-14.48,2.697c-4.391,1.798-8.171,4.373-11.339,7.726
		c-3.168,3.354-5.642,7.421-7.421,12.202c-1.779,4.78-2.669,10.136-2.669,16.064c0,6.041,0.88,11.451,2.641,16.231
		c1.759,4.78,4.197,8.838,7.31,12.173c3.112,3.335,6.79,5.883,11.034,7.643c4.242,1.76,8.846,2.64,13.812,2.64
		c3.149,0,5.966-0.222,8.449-0.667c2.483-0.445,4.753-1.093,6.809-1.945c2.056-0.853,3.965-1.899,5.725-3.141
		c1.759-1.24,3.511-2.658,5.253-4.252C222.185,612.708,222.334,612.615,222.444,612.615z"/>
	<path fill="#FF9727" d="M280.92,605.278c0.111,0.186,0.212,0.361,0.306,0.528c0.092,0.167,0.194,0.381,0.305,0.639
		c0.112-0.259,0.213-0.473,0.306-0.639c0.093-0.167,0.195-0.342,0.306-0.528l34.241-59.532c0.184-0.296,0.445-0.445,0.778-0.445
		h0.445v77.819h-1.112v-74.373c0-0.185,0-0.37,0-0.556c0-0.185,0.018-0.37,0.056-0.556L282.476,607
		c-0.259,0.371-0.519,0.556-0.778,0.556h-0.333c-0.26,0-0.52-0.185-0.778-0.556l-35.185-59.309c0.036,0.186,0.055,0.362,0.055,0.528
		c0,0.167,0,0.342,0,0.528v74.373h-1.111v-77.819h0.445c0.334,0,0.592,0.148,0.778,0.445L280.92,605.278z"/>
	<path fill="#FF9727" d="M379.971,552.416c-0.185,0.222-0.389,0.334-0.611,0.334c-0.333,0-0.843-0.38-1.528-1.14
		c-0.687-0.759-1.687-1.584-3.002-2.473c-1.316-0.89-3.011-1.714-5.086-2.474c-2.076-0.759-4.669-1.14-7.782-1.14
		c-3.188,0-6.013,0.492-8.477,1.474c-2.465,0.982-4.53,2.289-6.198,3.919c-1.668,1.631-2.938,3.521-3.808,5.669
		c-0.871,2.15-1.306,4.391-1.306,6.726c0,3.001,0.584,5.502,1.751,7.504c1.167,2.001,2.696,3.688,4.586,5.059
		c1.889,1.371,4.058,2.511,6.503,3.418c2.445,0.908,4.928,1.779,7.448,2.613c2.52,0.833,5.003,1.714,7.449,2.64
		c2.446,0.927,4.613,2.103,6.504,3.53c1.889,1.427,3.418,3.188,4.586,5.281c1.167,2.094,1.751,4.716,1.751,7.865
		c0,3.188-0.537,6.161-1.612,8.921c-1.075,2.76-2.632,5.169-4.669,7.226c-2.039,2.056-4.54,3.678-7.505,4.864
		c-2.965,1.185-6.337,1.779-10.116,1.779c-2.631,0-4.984-0.232-7.059-0.694c-2.076-0.463-3.975-1.13-5.697-2.001
		c-1.723-0.87-3.307-1.926-4.753-3.168c-1.445-1.241-2.835-2.659-4.169-4.252l0.222-0.223c0.112-0.111,0.204-0.194,0.278-0.25
		c0.074-0.056,0.204-0.083,0.39-0.083c0.222,0,0.546,0.232,0.972,0.695c0.426,0.464,1.01,1.056,1.751,1.779
		c0.741,0.722,1.63,1.492,2.668,2.307c1.037,0.816,2.297,1.584,3.78,2.307c1.482,0.722,3.177,1.316,5.087,1.779
		c1.908,0.464,4.085,0.694,6.531,0.694c3.594,0,6.79-0.574,9.589-1.723c2.797-1.149,5.17-2.697,7.115-4.642
		c1.945-1.945,3.427-4.215,4.446-6.809c1.019-2.593,1.529-5.354,1.529-8.282c0-2.446-0.38-4.558-1.139-6.337
		c-0.76-1.779-1.789-3.307-3.085-4.585c-1.297-1.279-2.807-2.372-4.53-3.28c-1.723-0.908-3.567-1.723-5.53-2.446
		c-1.965-0.722-3.966-1.389-6.004-2c-2.038-0.611-4.039-1.288-6.003-2.029c-1.965-0.741-3.808-1.584-5.53-2.529
		c-1.723-0.945-3.234-2.093-4.53-3.446c-1.298-1.352-2.326-2.965-3.085-4.836c-0.76-1.871-1.139-4.086-1.139-6.642
		c0-2.483,0.463-4.864,1.39-7.143c0.925-2.279,2.278-4.289,4.058-6.031c1.779-1.742,3.974-3.131,6.587-4.169
		c2.613-1.038,5.605-1.557,8.977-1.557c3.78,0,7.123,0.612,10.033,1.834c2.909,1.223,5.642,3.168,8.199,5.836L379.971,552.416z"/>
	<path fill="#FF9727" d="M398.98,626.789c-0.111,0.296-0.287,0.481-0.528,0.556c-0.242,0.074-0.473,0.111-0.695,0.111h-0.445
		l35.575-83.711c0.222-0.445,0.592-0.667,1.111-0.667h0.556L398.98,626.789z"/>
	<path fill="#FF9727" d="M486.471,552.416c-0.185,0.222-0.389,0.334-0.611,0.334c-0.333,0-0.843-0.38-1.528-1.14
		c-0.686-0.759-1.687-1.584-3.002-2.473c-1.316-0.89-3.011-1.714-5.086-2.474c-2.076-0.759-4.669-1.14-7.782-1.14
		c-3.187,0-6.013,0.492-8.477,1.474c-2.465,0.982-4.53,2.289-6.198,3.919c-1.668,1.631-2.938,3.521-3.808,5.669
		c-0.871,2.15-1.306,4.391-1.306,6.726c0,3.001,0.584,5.502,1.751,7.504c1.167,2.001,2.696,3.688,4.586,5.059
		c1.889,1.371,4.058,2.511,6.504,3.418c2.445,0.908,4.928,1.779,7.448,2.613c2.52,0.833,5.003,1.714,7.449,2.64
		c2.446,0.927,4.613,2.103,6.503,3.53c1.89,1.427,3.418,3.188,4.586,5.281c1.167,2.094,1.751,4.716,1.751,7.865
		c0,3.188-0.537,6.161-1.612,8.921c-1.075,2.76-2.632,5.169-4.669,7.226c-2.039,2.056-4.54,3.678-7.505,4.864
		c-2.965,1.185-6.337,1.779-10.116,1.779c-2.631,0-4.984-0.232-7.059-0.694c-2.076-0.463-3.975-1.13-5.697-2.001
		c-1.723-0.87-3.307-1.926-4.753-3.168c-1.445-1.241-2.835-2.659-4.169-4.252l0.222-0.223c0.112-0.111,0.204-0.194,0.278-0.25
		c0.074-0.056,0.204-0.083,0.39-0.083c0.222,0,0.546,0.232,0.972,0.695c0.426,0.464,1.01,1.056,1.751,1.779
		c0.741,0.722,1.63,1.492,2.668,2.307c1.037,0.816,2.297,1.584,3.78,2.307c1.482,0.722,3.177,1.316,5.087,1.779
		c1.908,0.464,4.085,0.694,6.531,0.694c3.594,0,6.79-0.574,9.589-1.723c2.797-1.149,5.17-2.697,7.115-4.642
		c1.945-1.945,3.427-4.215,4.446-6.809c1.019-2.593,1.529-5.354,1.529-8.282c0-2.446-0.38-4.558-1.139-6.337
		c-0.76-1.779-1.789-3.307-3.085-4.585c-1.297-1.279-2.807-2.372-4.53-3.28c-1.723-0.908-3.567-1.723-5.53-2.446
		c-1.965-0.722-3.966-1.389-6.004-2c-2.038-0.611-4.039-1.288-6.003-2.029c-1.965-0.741-3.808-1.584-5.53-2.529
		c-1.723-0.945-3.234-2.093-4.53-3.446c-1.298-1.352-2.326-2.965-3.085-4.836c-0.76-1.871-1.139-4.086-1.139-6.642
		c0-2.483,0.463-4.864,1.39-7.143c0.925-2.279,2.278-4.289,4.058-6.031c1.779-1.742,3.974-3.131,6.587-4.169
		c2.613-1.038,5.605-1.557,8.977-1.557c3.78,0,7.123,0.612,10.033,1.834c2.909,1.223,5.642,3.168,8.199,5.836L486.471,552.416z"/>
	<path fill="#FF9727" d="M557.063,545.301v1.223h-29.238v76.596h-1.334v-76.596h-29.46v-1.223H557.063z"/>
	<path fill="#FF9727" d="M576.182,585.545v37.575h-1.334v-77.819h18.01c8.115,0,14.35,1.576,18.704,4.725
		c4.354,3.15,6.531,8.059,6.531,14.73c0,3.15-0.612,5.995-1.834,8.533c-1.223,2.539-2.946,4.697-5.17,6.476
		s-4.883,3.168-7.976,4.169c-3.095,1.001-6.513,1.538-10.255,1.612c0.37,0.148,0.703,0.342,1,0.584
		c0.296,0.241,0.592,0.528,0.889,0.861l30.349,36.13h-0.889c-0.297,0-0.537-0.028-0.722-0.084c-0.186-0.055-0.426-0.25-0.722-0.584
		l-29.126-34.907c-0.334-0.407-0.659-0.741-0.973-1c-0.315-0.259-0.667-0.463-1.056-0.612c-0.389-0.148-0.843-0.25-1.362-0.306
		c-0.52-0.056-1.167-0.083-1.945-0.083H576.182z M576.182,584.433h15.675c3.817,0,7.254-0.453,10.311-1.362
		c3.057-0.908,5.67-2.204,7.837-3.891c2.168-1.686,3.836-3.743,5.003-6.17s1.751-5.178,1.751-8.255
		c0-6.337-2.056-10.978-6.17-13.924c-4.113-2.946-10.024-4.418-17.731-4.418h-16.676V584.433z"/>
	<path fill="#FF9727" d="M695.356,623.12h-1c-0.334,0-0.556-0.185-0.667-0.556l-10.839-26.013h-41.021l-10.839,26.013
		c-0.112,0.371-0.371,0.556-0.778,0.556h-0.889l32.462-77.819h1.111L695.356,623.12z M642.273,595.439h40.132l-19.177-46.024
		c-0.186-0.408-0.343-0.787-0.473-1.14c-0.13-0.351-0.269-0.731-0.417-1.139c-0.148,0.408-0.287,0.788-0.417,1.139
		c-0.13,0.353-0.287,0.732-0.473,1.14L642.273,595.439z"/>
	<path fill="#FF9727" d="M753.167,545.301v1.223h-29.238v76.596h-1.334v-76.596h-29.46v-1.223H753.167z"/>
	<path fill="#FF9727" d="M814.198,545.301v1.223h-44.135v36.463h37.464v1.223h-37.464v37.687h44.246l-0.111,1.223h-45.469v-77.819
		H814.198z"/>
	<path fill="#FF9727" d="M867.781,622.898c3.186,0,6.067-0.176,8.643-0.528c2.575-0.352,4.975-0.87,7.199-1.557
		c2.223-0.685,4.326-1.519,6.309-2.501c1.982-0.982,3.975-2.103,5.975-3.363v-24.18h-17.453c-0.445,0-0.667-0.185-0.667-0.556
		v-0.556h19.344v25.792c-1.927,1.297-3.919,2.473-5.975,3.529c-2.057,1.056-4.262,1.955-6.615,2.696
		c-2.354,0.742-4.911,1.316-7.671,1.723c-2.76,0.407-5.79,0.611-9.088,0.611c-5.596,0-10.673-0.917-15.231-2.752
		c-4.557-1.834-8.458-4.474-11.7-7.92c-3.243-3.447-5.753-7.624-7.532-12.534c-1.779-4.91-2.669-10.441-2.669-16.593
		c0-6.114,0.889-11.626,2.669-16.536c1.779-4.91,4.335-9.088,7.671-12.534c3.335-3.446,7.365-6.096,12.09-7.949
		c4.725-1.852,10.033-2.779,15.925-2.779c2.891,0,5.54,0.176,7.949,0.528c2.408,0.353,4.641,0.899,6.697,1.64
		c2.057,0.742,3.993,1.668,5.809,2.78c1.815,1.112,3.594,2.446,5.336,4.003l-0.167,0.278c-0.148,0.186-0.315,0.278-0.501,0.278
		c-0.297,0-0.927-0.435-1.889-1.306c-0.964-0.871-2.418-1.834-4.364-2.891c-1.945-1.056-4.456-2.02-7.532-2.891
		c-3.076-0.87-6.856-1.307-11.339-1.307c-5.633,0-10.728,0.881-15.285,2.641c-4.558,1.76-8.449,4.307-11.673,7.643
		c-3.224,3.335-5.707,7.393-7.449,12.174c-1.742,4.78-2.613,10.191-2.613,16.23c0,6.041,0.862,11.451,2.585,16.231
		c1.723,4.78,4.16,8.838,7.31,12.173c3.149,3.335,6.92,5.883,11.311,7.643S862.444,622.898,867.781,622.898z"/>
	<path fill="#FF9727" d="M939.261,590.047v33.073h-1.334v-33.073l-29.016-44.746h1.112c0.334,0,0.592,0.148,0.778,0.445
		l26.18,40.577c0.296,0.482,0.584,0.936,0.862,1.362c0.278,0.427,0.528,0.862,0.75,1.307c0.185-0.445,0.425-0.88,0.722-1.307
		c0.296-0.425,0.592-0.88,0.889-1.362l26.181-40.577c0.185-0.296,0.445-0.445,0.778-0.445h1.111L939.261,590.047z"/>
</g>
</svg>
